<?xml version="1.0" encoding="UTF-8"?>
<svg xmlns="http://www.w3.org/2000/svg" xmlns:xlink="http://www.w3.org/1999/xlink" width="120px" height="120px" viewBox="0 0 120 120" version="1.1">
<g id="surface1">
<path style=" stroke:none;fill-rule:nonzero;fill:rgb(10.196079%,73.725492%,99.607843%);fill-opacity:1;" d="M 64.125 60 C 64.125 50.332031 71.765625 42.503906 81.1875 42.503906 C 90.613281 42.503906 98.25 50.324219 98.25 60 C 98.25 69.667969 90.613281 77.496094 81.1875 77.496094 C 71.773438 77.496094 64.125 69.675781 64.125 60 Z M 64.125 60 "/>
<path style=" stroke:none;fill-rule:nonzero;fill:rgb(3.921569%,81.176472%,51.372552%);fill-opacity:1;" d="M 30 95.003906 C 30 85.335938 37.640625 77.496094 47.0625 77.496094 L 64.125 77.496094 L 64.125 95.003906 C 64.125 104.664062 56.484375 112.5 47.0625 112.5 C 37.640625 112.5 30 104.664062 30 95.003906 Z M 30 95.003906 "/>
<path style=" stroke:none;fill-rule:nonzero;fill:rgb(100%,44.705883%,38.431373%);fill-opacity:1;" d="M 64.125 7.5 L 64.125 42.503906 L 81.1875 42.503906 C 90.613281 42.503906 98.25 34.664062 98.25 24.996094 C 98.25 15.335938 90.613281 7.5 81.1875 7.5 Z M 64.125 7.5 "/>
<path style=" stroke:none;fill-rule:nonzero;fill:rgb(94.901961%,30.588236%,11.764706%);fill-opacity:1;" d="M 30 24.996094 C 30 34.664062 37.640625 42.503906 47.0625 42.503906 L 64.125 42.503906 L 64.125 7.5 L 47.0625 7.5 C 37.640625 7.5 30 15.335938 30 24.996094 Z M 30 24.996094 "/>
<path style=" stroke:none;fill-rule:nonzero;fill:rgb(63.529414%,34.901962%,100%);fill-opacity:1;" d="M 30 60 C 30 69.667969 37.640625 77.496094 47.0625 77.496094 L 64.125 77.496094 L 64.125 42.503906 L 47.0625 42.503906 C 37.640625 42.503906 30 50.324219 30 60 Z M 30 60 "/>
</g>
</svg>
