<?xml version="1.0" encoding="UTF-8"?>
<svg xmlns="http://www.w3.org/2000/svg" xmlns:xlink="http://www.w3.org/1999/xlink" width="120px" height="120px" viewBox="0 0 120 120" version="1.1">
<g id="surface1">
<path style=" stroke:none;fill-rule:nonzero;fill:rgb(13.725491%,58.823532%,92.941177%);fill-opacity:1;" d="M 92.566406 34.019531 L 93.691406 32.316406 L 95.65625 33.511719 L 96.523438 34.132812 C 98.625 35.753906 103.042969 39.890625 103.996094 46.761719 C 105.667969 46.460938 107.355469 46.3125 109.042969 46.3125 C 113.046875 46.3125 115.738281 47.242188 117.269531 48.015625 L 118.058594 48.441406 L 118.566406 48.78125 L 120 49.949219 L 119.503906 51.449219 C 118.734375 53.507812 117.535156 55.375 115.980469 56.925781 C 113.804688 59.167969 109.980469 61.816406 103.914062 62.160156 L 102.578125 62.199219 L 101.46875 62.199219 C 98.691406 69.523438 94.964844 77.78125 88.703125 85.191406 C 84.988281 89.597656 80.578125 93.363281 75.652344 96.351562 C 69.746094 99.855469 63.277344 102.3125 56.535156 103.613281 C 51.703125 104.550781 46.800781 105.015625 41.886719 105 C 31.011719 105 21.414062 102.839844 15.511719 99.058594 C 10.238281 95.691406 6.1875 90.195312 3.464844 82.734375 C 1.082031 75.914062 -0.0859375 68.730469 0.0078125 61.507812 C -0.0195312 59.59375 1.359375 57.949219 3.246094 57.636719 L 3.757812 57.601562 L 82.808594 57.601562 L 83.496094 57.546875 L 84.613281 57.425781 C 86.535156 57.171875 89.460938 56.601562 91.515625 55.402344 C 89.054688 51.328125 88.359375 46.566406 89.503906 41.496094 C 89.984375 39.382812 90.742188 37.339844 91.753906 35.421875 Z M 21.675781 43.378906 L 21.976562 43.433594 L 22.597656 44.347656 L 22.597656 54.210938 L 22.550781 54.515625 L 21.675781 55.175781 L 11.085938 55.175781 L 10.15625 54.21875 L 10.15625 44.339844 L 10.207031 44.039062 L 11.085938 43.371094 L 21.675781 43.371094 Z M 36.277344 43.378906 L 36.570312 43.433594 L 37.199219 44.347656 L 37.199219 54.210938 L 37.148438 54.515625 L 36.269531 55.175781 L 25.679688 55.175781 L 24.75 54.226562 L 24.75 44.347656 L 25.679688 43.371094 L 36.277344 43.371094 Z M 51.097656 43.378906 L 51.390625 43.433594 L 52.019531 44.347656 L 52.019531 54.210938 L 51.96875 54.515625 L 51.089844 55.175781 L 40.5 55.175781 L 39.578125 54.21875 L 39.578125 44.339844 L 39.621094 44.039062 L 40.5 43.371094 L 51.097656 43.371094 Z M 65.738281 43.378906 L 66.03125 43.433594 L 66.667969 44.347656 L 66.667969 54.210938 L 65.730469 55.175781 L 55.148438 55.175781 L 54.226562 54.21875 L 54.226562 44.339844 L 54.269531 44.039062 L 55.15625 43.371094 L 65.746094 43.371094 Z M 80.511719 43.378906 L 80.804688 43.433594 L 81.433594 44.347656 L 81.433594 54.210938 L 80.503906 55.175781 L 69.914062 55.175781 L 68.992188 54.21875 L 68.992188 44.339844 L 69.039062 44.039062 L 69.921875 43.371094 L 80.503906 43.371094 Z M 36.261719 29.191406 L 36.5625 29.242188 L 37.191406 30.15625 L 37.191406 40.019531 L 36.261719 40.996094 L 25.679688 40.996094 L 24.75 40.019531 L 24.75 30.15625 L 25.679688 29.191406 L 36.269531 29.191406 Z M 51.082031 29.191406 L 51.382812 29.242188 L 52.011719 30.15625 L 52.011719 40.019531 L 51.082031 40.996094 L 40.5 40.996094 L 39.578125 40.019531 L 39.578125 30.15625 L 39.621094 29.859375 L 40.5 29.191406 L 51.089844 29.191406 Z M 65.730469 29.191406 C 66.136719 29.191406 66.480469 29.46875 66.609375 29.851562 L 66.660156 30.15625 L 66.660156 40.019531 L 65.722656 40.996094 L 55.148438 40.996094 L 54.226562 40.019531 L 54.226562 30.15625 L 54.269531 29.859375 L 55.15625 29.191406 L 65.746094 29.191406 Z M 65.730469 15 C 66.136719 15 66.480469 15.277344 66.609375 15.660156 L 66.660156 15.960938 L 66.660156 25.828125 L 65.722656 26.796875 L 55.148438 26.796875 L 54.226562 25.835938 L 54.226562 15.960938 L 54.269531 15.660156 L 55.148438 15 L 65.738281 15 Z M 65.730469 15 "/>
</g>
</svg>
