<?xml version="1.0" encoding="UTF-8"?>
<svg xmlns="http://www.w3.org/2000/svg" xmlns:xlink="http://www.w3.org/1999/xlink" width="125px" height="125px" viewBox="0 0 125 125" version="1.1">
<defs>
<clipPath id="clip1">
  <path d="M 96 45 L 125 45 L 125 125 L 96 125 Z M 96 45 "/>
</clipPath>
<clipPath id="clip2">
  <path d="M 62.5 0 C 97.019531 0 125 27.980469 125 62.5 C 125 97.019531 97.019531 125 62.5 125 C 27.980469 125 0 97.019531 0 62.5 C 0 27.980469 27.980469 0 62.5 0 Z M 62.5 0 "/>
</clipPath>
<clipPath id="clip3">
  <path d="M 95 95 L 125 95 L 125 125 L 95 125 Z M 95 95 "/>
</clipPath>
<clipPath id="clip4">
  <path d="M 62.5 0 C 97.019531 0 125 27.980469 125 62.5 C 125 97.019531 97.019531 125 62.5 125 C 27.980469 125 0 97.019531 0 62.5 C 0 27.980469 27.980469 0 62.5 0 Z M 62.5 0 "/>
</clipPath>
<clipPath id="clip5">
  <path d="M 29 96 L 125 96 L 125 125 L 29 125 Z M 29 96 "/>
</clipPath>
<clipPath id="clip6">
  <path d="M 62.5 0 C 97.019531 0 125 27.980469 125 62.5 C 125 97.019531 97.019531 125 62.5 125 C 27.980469 125 0 97.019531 0 62.5 C 0 27.980469 27.980469 0 62.5 0 Z M 62.5 0 "/>
</clipPath>
<clipPath id="clip7">
  <path d="M 28 96 L 100 96 L 100 125 L 28 125 Z M 28 96 "/>
</clipPath>
<clipPath id="clip8">
  <path d="M 62.5 0 C 97.019531 0 125 27.980469 125 62.5 C 125 97.019531 97.019531 125 62.5 125 C 27.980469 125 0 97.019531 0 62.5 C 0 27.980469 27.980469 0 62.5 0 Z M 62.5 0 "/>
</clipPath>
<clipPath id="clip9">
  <path d="M 96 28 L 125 28 L 125 100 L 96 100 Z M 96 28 "/>
</clipPath>
<clipPath id="clip10">
  <path d="M 62.5 0 C 97.019531 0 125 27.980469 125 62.5 C 125 97.019531 97.019531 125 62.5 125 C 27.980469 125 0 97.019531 0 62.5 C 0 27.980469 27.980469 0 62.5 0 Z M 62.5 0 "/>
</clipPath>
<clipPath id="clip11">
  <path d="M 96 29 L 125 29 L 125 112 L 96 112 Z M 96 29 "/>
</clipPath>
<clipPath id="clip12">
  <path d="M 62.5 0 C 97.019531 0 125 27.980469 125 62.5 C 125 97.019531 97.019531 125 62.5 125 C 27.980469 125 0 97.019531 0 62.5 C 0 27.980469 27.980469 0 62.5 0 Z M 62.5 0 "/>
</clipPath>
<clipPath id="clip13">
  <path d="M 96 42 L 125 42 L 125 115 L 96 115 Z M 96 42 "/>
</clipPath>
<clipPath id="clip14">
  <path d="M 62.5 0 C 97.019531 0 125 27.980469 125 62.5 C 125 97.019531 97.019531 125 62.5 125 C 27.980469 125 0 97.019531 0 62.5 C 0 27.980469 27.980469 0 62.5 0 Z M 62.5 0 "/>
</clipPath>
<clipPath id="clip15">
  <path d="M 28 28 L 97 28 L 97 97 L 28 97 Z M 28 28 "/>
</clipPath>
<clipPath id="clip16">
  <path d="M 62.5 0 C 97.019531 0 125 27.980469 125 62.5 C 125 97.019531 97.019531 125 62.5 125 C 27.980469 125 0 97.019531 0 62.5 C 0 27.980469 27.980469 0 62.5 0 Z M 62.5 0 "/>
</clipPath>
</defs>
<g id="surface1">
<path style=" stroke:none;fill-rule:evenodd;fill:rgb(81.960785%,76.862746%,91.37255%);fill-opacity:1;" d="M 62.5 0 C 97.019531 0 125 27.980469 125 62.5 C 125 97.019531 97.019531 125 62.5 125 C 27.980469 125 0 97.019531 0 62.5 C 0 27.980469 27.980469 0 62.5 0 Z M 62.5 0 "/>
<g clip-path="url(#clip1)" clip-rule="nonzero">
<g clip-path="url(#clip2)" clip-rule="evenodd">
<path style=" stroke:none;fill-rule:evenodd;fill:rgb(70.19608%,61.56863%,85.882354%);fill-opacity:1;" d="M 96.679688 45.410156 L 166.007812 114.738281 L 166.007812 164.585938 L 96.679688 95.253906 Z M 96.679688 45.410156 "/>
</g>
</g>
<g clip-path="url(#clip3)" clip-rule="nonzero">
<g clip-path="url(#clip4)" clip-rule="evenodd">
<path style=" stroke:none;fill-rule:evenodd;fill:rgb(70.19608%,61.56863%,85.882354%);fill-opacity:1;" d="M 96.679688 95.253906 L 166.007812 164.585938 L 166 164.730469 L 165.980469 164.871094 L 165.945312 165.007812 L 165.898438 165.136719 L 165.835938 165.261719 L 165.765625 165.378906 L 165.683594 165.488281 L 165.589844 165.589844 L 165.488281 165.683594 L 165.378906 165.765625 L 165.261719 165.835938 L 165.136719 165.898438 L 165.007812 165.945312 L 164.871094 165.980469 L 164.730469 166 L 164.585938 166.007812 L 95.253906 96.679688 L 95.402344 96.671875 L 95.542969 96.652344 L 95.679688 96.617188 L 95.808594 96.566406 L 95.933594 96.507812 L 96.050781 96.4375 L 96.160156 96.355469 L 96.261719 96.261719 L 96.355469 96.160156 L 96.4375 96.050781 L 96.507812 95.933594 L 96.566406 95.808594 L 96.617188 95.679688 L 96.652344 95.542969 L 96.671875 95.402344 Z M 96.679688 95.253906 "/>
</g>
</g>
<g clip-path="url(#clip5)" clip-rule="nonzero">
<g clip-path="url(#clip6)" clip-rule="evenodd">
<path style=" stroke:none;fill-rule:evenodd;fill:rgb(70.19608%,61.56863%,85.882354%);fill-opacity:1;" d="M 95.253906 96.679688 L 164.585938 166.007812 L 99.074219 166.007812 L 29.746094 96.679688 Z M 95.253906 96.679688 "/>
</g>
</g>
<g clip-path="url(#clip7)" clip-rule="nonzero">
<g clip-path="url(#clip8)" clip-rule="evenodd">
<path style=" stroke:none;fill-rule:evenodd;fill:rgb(70.19608%,61.56863%,85.882354%);fill-opacity:1;" d="M 29.746094 96.679688 L 99.074219 166.007812 L 98.925781 166 L 98.785156 165.980469 L 98.648438 165.945312 L 98.519531 165.898438 L 98.394531 165.835938 L 98.277344 165.765625 L 98.167969 165.683594 L 28.839844 96.355469 L 28.949219 96.4375 L 29.066406 96.507812 L 29.191406 96.566406 L 29.320312 96.617188 L 29.457031 96.652344 L 29.597656 96.671875 Z M 29.746094 96.679688 "/>
</g>
</g>
<g clip-path="url(#clip9)" clip-rule="nonzero">
<g clip-path="url(#clip10)" clip-rule="evenodd">
<path style=" stroke:none;fill-rule:evenodd;fill:rgb(70.19608%,61.56863%,85.882354%);fill-opacity:1;" d="M 96.355469 28.839844 L 165.683594 98.167969 L 165.765625 98.277344 L 165.835938 98.394531 L 165.898438 98.519531 L 165.945312 98.648438 L 165.980469 98.785156 L 166 98.925781 L 166.007812 99.074219 L 96.679688 29.746094 L 96.671875 29.597656 L 96.652344 29.457031 L 96.617188 29.320312 L 96.566406 29.191406 L 96.507812 29.066406 L 96.4375 28.949219 Z M 96.355469 28.839844 "/>
</g>
</g>
<g clip-path="url(#clip11)" clip-rule="nonzero">
<g clip-path="url(#clip12)" clip-rule="evenodd">
<path style=" stroke:none;fill-rule:evenodd;fill:rgb(70.19608%,61.56863%,85.882354%);fill-opacity:1;" d="M 96.679688 29.746094 L 166.007812 99.074219 L 166.007812 111.890625 L 96.679688 42.5625 Z M 96.679688 29.746094 "/>
</g>
</g>
<g clip-path="url(#clip13)" clip-rule="nonzero">
<g clip-path="url(#clip14)" clip-rule="evenodd">
<path style=" stroke:none;fill-rule:evenodd;fill:rgb(70.19608%,61.56863%,85.882354%);fill-opacity:1;" d="M 96.679688 42.5625 L 166.007812 111.890625 L 166.007812 114.738281 L 96.679688 45.410156 Z M 96.679688 42.5625 "/>
</g>
</g>
<g clip-path="url(#clip15)" clip-rule="nonzero">
<g clip-path="url(#clip16)" clip-rule="evenodd">
<path style=" stroke:none;fill-rule:evenodd;fill:rgb(70.19608%,61.56863%,85.882354%);fill-opacity:1;" d="M 96.679688 45.410156 L 96.679688 95.253906 C 96.679688 96.042969 96.042969 96.679688 95.253906 96.679688 L 29.746094 96.679688 C 28.957031 96.679688 28.320312 96.042969 28.320312 95.253906 L 28.320312 29.746094 C 28.320312 28.957031 28.957031 28.320312 29.746094 28.320312 L 95.253906 28.320312 C 96.042969 28.320312 96.679688 28.957031 96.679688 29.746094 Z M 96.679688 45.410156 "/>
</g>
</g>
<path style=" stroke:none;fill-rule:evenodd;fill:rgb(55.686277%,58.823532%,63.921571%);fill-opacity:1;" d="M 96.679688 42.5625 L 96.679688 95.253906 C 96.679688 96.042969 96.042969 96.679688 95.253906 96.679688 L 29.746094 96.679688 C 28.957031 96.679688 28.320312 96.042969 28.320312 95.253906 L 28.320312 42.5625 Z M 96.679688 42.5625 "/>
<path style=" stroke:none;fill-rule:evenodd;fill:rgb(48.235294%,51.372552%,55.686277%);fill-opacity:1;" d="M 96.679688 42.5625 L 96.679688 45.410156 L 28.320312 45.410156 L 28.320312 42.5625 Z M 96.679688 42.5625 "/>
<path style=" stroke:none;fill-rule:nonzero;fill:rgb(25.490198%,31.37255%,39.607844%);fill-opacity:1;" d="M 29.746094 28.320312 L 95.253906 28.320312 C 96.042969 28.320312 96.679688 28.957031 96.679688 29.746094 L 96.679688 42.5625 L 28.320312 42.5625 L 28.320312 29.746094 C 28.320312 28.957031 28.957031 28.320312 29.746094 28.320312 Z M 29.746094 28.320312 "/>
<path style=" stroke:none;fill-rule:evenodd;fill:rgb(100%,75.686276%,2.745098%);fill-opacity:1;" d="M 83.734375 81.015625 L 83.734375 58.226562 L 86.746094 58.226562 L 86.746094 81.015625 Z M 65 69.0625 L 70.894531 69.0625 C 72.84375 69.0625 74.226562 68.699219 75.042969 67.972656 C 75.859375 67.246094 76.269531 66.226562 76.269531 64.914062 C 76.269531 63.957031 76.03125 63.140625 75.546875 62.460938 C 75.066406 61.78125 74.433594 61.335938 73.644531 61.117188 C 73.132812 60.984375 72.199219 60.917969 70.832031 60.917969 L 65 60.917969 Z M 61.988281 81.015625 L 61.988281 58.226562 L 70.582031 58.226562 C 72.09375 58.226562 73.25 58.300781 74.046875 58.445312 C 75.167969 58.628906 76.105469 58.984375 76.863281 59.511719 C 77.617188 60.03125 78.226562 60.769531 78.6875 61.707031 C 79.152344 62.652344 79.378906 63.6875 79.378906 64.816406 C 79.378906 66.753906 78.761719 68.398438 77.53125 69.738281 C 76.296875 71.078125 74.066406 71.75 70.847656 71.75 L 65 71.75 L 65 81.015625 Z M 44.824219 71.65625 L 52.554688 71.65625 L 50.171875 65.347656 C 49.453125 63.433594 48.910156 61.855469 48.558594 60.621094 C 48.269531 62.085938 47.859375 63.53125 47.328125 64.976562 Z M 38.25 81.015625 L 47.003906 58.226562 L 50.253906 58.226562 L 59.578125 81.015625 L 56.140625 81.015625 L 53.484375 74.113281 L 43.953125 74.113281 L 41.457031 81.015625 Z M 38.25 81.015625 "/>
<path style=" stroke:none;fill-rule:nonzero;fill:rgb(93.725491%,32.549021%,31.37255%);fill-opacity:1;" d="M 85.292969 32.519531 L 85.292969 38.214844 L 90.988281 38.214844 L 90.988281 32.519531 Z M 85.292969 32.519531 "/>
<path style=" stroke:none;fill-rule:nonzero;fill:rgb(100%,67.058825%,25.098041%);fill-opacity:1;" d="M 65.339844 38.214844 L 71.039062 38.214844 L 71.039062 32.519531 L 65.339844 32.519531 Z M 65.339844 38.214844 "/>
<path style=" stroke:none;fill-rule:nonzero;fill:rgb(48.627451%,70.19608%,25.882354%);fill-opacity:1;" d="M 75.304688 32.519531 L 75.304688 38.214844 L 81 38.214844 L 81 32.519531 Z M 75.304688 32.519531 "/>
</g>
</svg>
