<?xml version="1.0" encoding="UTF-8"?>
<svg xmlns="http://www.w3.org/2000/svg" xmlns:xlink="http://www.w3.org/1999/xlink" width="121px" height="120px" viewBox="0 0 121 120" version="1.1">
<g id="surface1">
<path style=" stroke:none;fill-rule:nonzero;fill:rgb(33.725491%,23.921569%,48.627451%);fill-opacity:1;" d="M 0 104.527344 C 0 113.074219 6.984375 120 15.601562 120 L 105.398438 120 C 114.015625 120 121 113.074219 121 104.527344 L 121 15.472656 C 121 6.925781 114.015625 0 105.398438 0 L 15.601562 0 C 6.984375 0 0 6.925781 0 15.472656 Z M 0 104.527344 "/>
<path style=" stroke:none;fill-rule:nonzero;fill:rgb(100%,100%,100%);fill-opacity:1;" d="M 50.175781 53.082031 L 50.175781 36.085938 L 65.257812 36.085938 C 66.695312 36.085938 68.082031 36.207031 69.414062 36.441406 C 70.75 36.679688 71.929688 37.105469 72.953125 37.714844 C 73.980469 38.324219 74.800781 39.171875 75.417969 40.257812 C 76.03125 41.34375 76.339844 42.734375 76.339844 44.429688 C 76.339844 47.484375 75.417969 49.6875 73.570312 51.046875 C 71.722656 52.402344 69.363281 53.082031 66.492188 53.082031 Z M 34.066406 23.671875 L 34.066406 96.328125 L 69.570312 96.328125 C 72.851562 96.328125 76.050781 95.921875 79.164062 95.105469 C 82.273438 94.292969 85.046875 93.039062 87.472656 91.34375 C 89.902344 89.644531 91.835938 87.457031 93.269531 84.777344 C 94.707031 82.097656 95.425781 78.925781 95.425781 75.265625 C 95.425781 70.71875 94.3125 66.835938 92.089844 63.613281 C 89.867188 60.390625 86.5 58.132812 81.984375 56.84375 C 85.269531 55.285156 87.746094 53.285156 89.421875 50.839844 C 91.097656 48.398438 91.9375 45.347656 91.9375 41.683594 C 91.9375 38.292969 91.371094 35.441406 90.246094 33.136719 C 89.117188 30.828125 87.523438 28.980469 85.472656 27.589844 C 83.421875 26.199219 80.957031 25.199219 78.085938 24.585938 C 75.210938 23.976562 72.03125 23.671875 68.542969 23.671875 Z M 50.175781 83.914062 L 50.175781 63.96875 L 67.722656 63.96875 C 71.210938 63.96875 74.015625 64.765625 76.136719 66.359375 C 78.257812 67.953125 79.316406 70.617188 79.316406 74.347656 C 79.316406 76.246094 78.992188 77.808594 78.34375 79.027344 C 77.691406 80.25 76.820312 81.21875 75.726562 81.929688 C 74.632812 82.640625 73.363281 83.148438 71.929688 83.457031 C 70.492188 83.761719 68.988281 83.914062 67.414062 83.914062 Z M 50.175781 83.914062 "/>
</g>
</svg>
