<?xml version="1.0" encoding="UTF-8"?>
<svg xmlns="http://www.w3.org/2000/svg" xmlns:xlink="http://www.w3.org/1999/xlink" width="120px" height="120px" viewBox="0 0 120 120" version="1.1">
<g id="surface1">
<path style=" stroke:none;fill-rule:nonzero;fill:rgb(7.450981%,66.666669%,32.156864%);fill-opacity:1;" d="M 120 60 C 120 26.863281 93.136719 0 60 0 C 26.863281 0 0 26.863281 0 60 C 0 93.136719 26.863281 120 60 120 C 93.136719 120 120 93.136719 120 60 Z M 120 60 "/>
<path style=" stroke:none;fill-rule:nonzero;fill:rgb(100%,100%,100%);fill-opacity:1;" d="M 76.039062 52.667969 C 72.25 35.941406 63.292969 30.441406 62.328125 28.34375 C 61.273438 26.859375 60.203125 24.222656 60.203125 24.222656 C 60.1875 24.179688 60.15625 24.097656 60.125 24.023438 C 60.015625 25.507812 59.960938 26.078125 58.558594 27.574219 C 56.386719 29.269531 45.253906 38.613281 44.347656 57.617188 C 43.503906 75.339844 57.148438 85.902344 58.996094 87.246094 L 59.207031 87.394531 L 59.207031 87.382812 C 59.21875 87.472656 59.792969 91.601562 60.195312 95.976562 L 61.640625 95.976562 C 61.980469 92.882812 62.488281 89.8125 63.164062 86.773438 L 63.28125 86.699219 C 64.105469 86.105469 64.894531 85.464844 65.636719 84.769531 L 65.722656 84.695312 C 69.644531 81.070312 76.699219 72.6875 76.628906 59.320312 C 76.617188 57.089844 76.417969 54.867188 76.039062 52.667969 Z M 60.039062 77.242188 C 60.039062 77.242188 60.039062 52.382812 60.859375 52.386719 C 61.5 52.386719 62.328125 84.453125 62.328125 84.453125 C 61.191406 84.3125 60.039062 79.175781 60.039062 77.242188 Z M 60.039062 77.242188 "/>
</g>
</svg>
