<?xml version="1.0" encoding="UTF-8"?>
<svg xmlns="http://www.w3.org/2000/svg" xmlns:xlink="http://www.w3.org/1999/xlink" width="120px" height="120px" viewBox="0 0 120 120" version="1.1">
<g id="surface1">
<path style=" stroke:none;fill-rule:nonzero;fill:rgb(100%,100%,100%);fill-opacity:1;" d="M 59.558594 120 C 27.585938 119.777344 -0.214844 93.242188 0 59.53125 C 0.207031 27.09375 27.164062 -0.21875 60.519531 0 C 92.9375 0.214844 120.289062 27.125 119.996094 60.089844 C 120.265625 92.757812 92.78125 120.230469 59.558594 120 Z M 59.558594 120 C 27.585938 119.777344 -0.214844 93.242188 0 59.53125 C 0.207031 27.09375 27.164062 -0.21875 60.519531 0 C 92.9375 0.214844 120.289062 27.125 119.996094 60.089844 C 120.265625 92.757812 92.78125 120.230469 59.558594 120 Z M 59.558594 120 "/>
<path style=" stroke:none;fill-rule:nonzero;fill:rgb(28.627452%,63.921571%,16.862746%);fill-opacity:1;" d="M 59.617188 112.03125 C 31.890625 111.839844 7.78125 88.828125 7.96875 59.59375 C 8.148438 31.460938 31.527344 7.777344 60.453125 7.96875 C 88.5625 8.15625 112.28125 31.492188 112.027344 60.078125 C 112.261719 88.40625 88.429688 112.230469 59.617188 112.03125 Z M 59.617188 112.03125 C 31.890625 111.839844 7.78125 88.828125 7.96875 59.59375 C 8.148438 31.460938 31.527344 7.777344 60.453125 7.96875 C 88.5625 8.15625 112.28125 31.492188 112.027344 60.078125 C 112.261719 88.40625 88.429688 112.230469 59.617188 112.03125 Z M 59.617188 112.03125 "/>
<path style=" stroke:none;fill-rule:nonzero;fill:rgb(100%,100%,100%);fill-opacity:1;" d="M 79.371094 59.980469 C 79.238281 62.460938 77.074219 64.519531 74.9375 64.160156 C 74.925781 64.160156 74.917969 64.160156 74.90625 64.160156 C 72.539062 64.164062 70.621094 62.246094 70.617188 59.882812 C 70.699219 57.511719 72.664062 55.640625 75.039062 55.683594 C 77.402344 55.695312 79.5 57.691406 79.371094 59.980469 Z M 41.34375 84.007812 C 42.234375 84.035156 43.128906 84.015625 44.15625 84.015625 L 44.15625 90.480469 C 37.765625 91.558594 32.5 89.746094 31.207031 84.34375 C 30.765625 82.355469 30.496094 80.335938 30.394531 78.300781 C 30.257812 76.148438 30.496094 73.972656 30.332031 71.824219 C 29.875 65.914062 29.109375 63.894531 23.4375 63.613281 L 23.4375 56.257812 C 23.84375 56.160156 24.257812 56.089844 24.671875 56.046875 C 27.78125 55.890625 29.09375 54.9375 29.789062 51.875 C 30.105469 50.152344 30.292969 48.410156 30.347656 46.660156 C 30.59375 43.277344 30.507812 39.839844 31.070312 36.511719 C 31.886719 31.699219 34.875 29.359375 39.808594 29.097656 C 41.210938 29.023438 42.621094 29.085938 44.210938 29.085938 L 44.210938 35.691406 C 43.558594 35.738281 42.957031 35.835938 42.363281 35.816406 C 38.339844 35.695312 38.132812 37.0625 37.839844 40.394531 C 37.65625 42.480469 37.90625 44.605469 37.765625 46.699219 C 37.617188 48.785156 37.335938 50.859375 36.929688 52.90625 C 36.351562 55.878906 34.523438 58.089844 31.992188 59.964844 C 36.90625 63.160156 37.464844 68.132812 37.785156 73.175781 C 37.957031 75.886719 37.878906 78.617188 38.152344 81.316406 C 38.367188 83.410156 39.183594 83.945312 41.34375 84.007812 Z M 45.484375 55.683594 C 45.511719 55.683594 45.535156 55.683594 45.5625 55.683594 C 47.910156 55.722656 49.785156 57.65625 49.746094 60.007812 C 49.746094 60.085938 49.746094 60.160156 49.738281 60.238281 C 49.609375 62.535156 47.640625 64.289062 45.34375 64.15625 C 45.25 64.160156 45.15625 64.15625 45.066406 64.152344 C 42.726562 64.035156 40.925781 62.046875 41.042969 59.707031 C 41.15625 57.367188 43.148438 55.566406 45.484375 55.683594 Z M 60.128906 55.683594 C 62.699219 55.664062 64.40625 57.328125 64.417969 59.867188 C 64.433594 62.476562 62.8125 64.144531 60.261719 64.15625 C 57.664062 64.167969 55.953125 62.527344 55.941406 60 C 55.933594 59.871094 55.929688 59.742188 55.933594 59.613281 C 56.007812 57.371094 57.882812 55.609375 60.128906 55.683594 Z M 90.785156 52.464844 C 91.46875 55.015625 92.796875 55.914062 95.488281 56.039062 C 95.925781 56.058594 96.367188 56.132812 96.96875 56.199219 L 96.96875 63.554688 C 96.644531 63.664062 96.308594 63.742188 95.96875 63.796875 C 92.367188 64.019531 90.722656 65.496094 90.359375 69.109375 C 90.128906 71.414062 90.148438 73.746094 89.988281 76.058594 C 89.921875 78.597656 89.6875 81.132812 89.296875 83.644531 C 88.375 88.191406 85.535156 90.460938 80.84375 90.738281 C 79.332031 90.828125 77.8125 90.75 76.183594 90.75 L 76.183594 84.175781 C 77.0625 84.125 77.835938 84.046875 78.609375 84.03125 C 81.414062 83.960938 82.40625 83.058594 82.542969 80.273438 C 82.695312 77.214844 82.761719 74.152344 82.898438 71.09375 C 83.09375 66.671875 84.304688 62.722656 88.425781 59.964844 C 86.070312 58.28125 84.175781 56.246094 83.6875 53.503906 C 83.09375 50.175781 82.902344 46.777344 82.582031 43.402344 C 82.425781 41.714844 82.433594 40.015625 82.265625 38.328125 C 82.089844 36.511719 80.839844 35.882812 79.183594 35.839844 C 78.234375 35.816406 77.285156 35.835938 76.070312 35.835938 L 76.070312 29.414062 C 83.808594 28.132812 89.15625 30.707031 89.652344 38.109375 C 89.859375 41.21875 89.828125 44.34375 90.027344 47.453125 C 90.117188 49.144531 90.367188 50.824219 90.785156 52.464844 Z M 90.785156 52.464844 "/>
</g>
</svg>
