<?xml version="1.0" encoding="UTF-8"?>
<svg xmlns="http://www.w3.org/2000/svg" xmlns:xlink="http://www.w3.org/1999/xlink" width="120px" height="120px" viewBox="0 0 120 120" version="1.1">
<g id="surface1">
<path style=" stroke:none;fill-rule:nonzero;fill:rgb(19.215687%,47.058824%,77.64706%);fill-opacity:1;" d="M 11.71875 0 L 108.28125 0 C 114.753906 0 120 5.246094 120 11.71875 L 120 108.28125 C 120 114.753906 114.753906 120 108.28125 120 L 11.71875 120 C 5.246094 120 0 114.753906 0 108.28125 L 0 11.71875 C 0 5.246094 5.246094 0 11.71875 0 Z M 11.71875 0 "/>
<path style=" stroke:none;fill-rule:nonzero;fill:rgb(19.215687%,47.058824%,77.64706%);fill-opacity:1;" d="M 11.71875 0 L 108.28125 0 C 114.753906 0 120 5.246094 120 11.71875 L 120 108.28125 C 120 114.753906 114.753906 120 108.28125 120 L 11.71875 120 C 5.246094 120 0 114.753906 0 108.28125 L 0 11.71875 C 0 5.246094 5.246094 0 11.71875 0 Z M 11.71875 0 "/>
<path style=" stroke:none;fill-rule:evenodd;fill:rgb(100%,100%,100%);fill-opacity:1;" d="M 74.28125 95.488281 L 74.28125 107.222656 C 76.191406 108.199219 78.445312 108.933594 81.050781 109.421875 C 83.65625 109.910156 86.398438 110.15625 89.285156 110.15625 C 92.097656 110.15625 94.769531 109.886719 97.300781 109.347656 C 99.832031 108.8125 102.050781 107.925781 103.957031 106.691406 C 105.863281 105.457031 107.375 103.84375 108.488281 101.851562 C 109.601562 99.859375 110.15625 97.398438 110.15625 94.464844 C 110.15625 92.335938 109.839844 90.472656 109.203125 88.871094 C 108.566406 87.269531 107.648438 85.847656 106.453125 84.601562 C 105.253906 83.355469 103.816406 82.234375 102.140625 81.246094 C 100.464844 80.253906 98.578125 79.320312 96.472656 78.441406 C 94.933594 77.804688 93.550781 77.1875 92.328125 76.589844 C 91.105469 75.988281 90.066406 75.378906 89.210938 74.753906 C 88.355469 74.132812 87.695312 73.472656 87.230469 72.777344 C 86.765625 72.078125 86.535156 71.289062 86.535156 70.410156 C 86.535156 69.605469 86.742188 68.878906 87.15625 68.230469 C 87.574219 67.582031 88.160156 67.023438 88.917969 66.5625 C 89.675781 66.097656 90.605469 65.734375 91.707031 65.480469 C 92.804688 65.222656 94.027344 65.09375 95.375 65.09375 C 96.351562 65.09375 97.386719 65.167969 98.472656 65.3125 C 99.5625 65.460938 100.65625 65.6875 101.757812 65.992188 C 102.855469 66.296875 103.925781 66.683594 104.964844 67.148438 C 106.003906 67.613281 106.964844 68.148438 107.84375 68.761719 L 107.84375 57.796875 C 106.058594 57.113281 104.109375 56.605469 101.996094 56.277344 C 99.878906 55.945312 97.453125 55.78125 94.714844 55.78125 C 91.925781 55.78125 89.285156 56.082031 86.789062 56.679688 C 84.296875 57.277344 82.101562 58.214844 80.207031 59.484375 C 78.3125 60.753906 76.8125 62.375 75.714844 64.34375 C 74.613281 66.308594 74.0625 68.664062 74.0625 71.402344 C 74.0625 74.894531 75.070312 77.878906 77.089844 80.347656 C 79.105469 82.816406 82.167969 84.90625 86.277344 86.617188 C 87.890625 87.277344 89.394531 87.925781 90.789062 88.558594 C 92.183594 89.195312 93.386719 89.855469 94.402344 90.539062 C 95.417969 91.226562 96.21875 91.96875 96.804688 92.777344 C 97.390625 93.582031 97.683594 94.5 97.683594 95.527344 C 97.683594 96.285156 97.5 96.988281 97.132812 97.636719 C 96.769531 98.28125 96.210938 98.84375 95.464844 99.320312 C 94.71875 99.796875 93.789062 100.171875 92.679688 100.441406 C 91.566406 100.707031 90.261719 100.84375 88.769531 100.84375 C 86.226562 100.84375 83.710938 100.398438 81.214844 99.503906 C 78.722656 98.613281 76.410156 97.273438 74.28125 95.488281 Z M 54.558594 66.582031 L 69.609375 66.582031 L 69.609375 56.953125 L 27.65625 56.953125 L 27.65625 66.582031 L 42.632812 66.582031 L 42.632812 109.453125 L 54.558594 109.453125 Z M 54.558594 66.582031 "/>
</g>
</svg>
