<?xml version="1.0" encoding="UTF-8"?>
<svg xmlns="http://www.w3.org/2000/svg" xmlns:xlink="http://www.w3.org/1999/xlink" width="120px" height="120px" viewBox="0 0 120 120" version="1.1">
<g id="surface1">
<path style=" stroke:none;fill-rule:nonzero;fill:rgb(100%,42.352942%,21.568628%);fill-opacity:1;" d="M 119.507812 67.617188 C 123.707031 34.746094 100.492188 4.691406 67.679688 0.492188 C 34.863281 -3.707031 4.691406 19.507812 0.492188 52.320312 C -3.707031 85.136719 19.507812 115.25 52.320312 119.507812 C 85.195312 123.707031 115.25 100.492188 119.507812 67.617188 Z M 119.507812 67.617188 "/>
<path style=" stroke:none;fill-rule:nonzero;fill:rgb(100%,100%,100%);fill-opacity:1;" d="M 81.65625 38.523438 L 56.339844 63.839844 L 49.203125 56.699219 C 74.097656 31.804688 76.558594 33.964844 81.65625 38.523438 Z M 81.65625 38.523438 "/>
<path style=" stroke:none;fill-rule:nonzero;fill:rgb(100%,42.352942%,21.568628%);fill-opacity:1;" d="M 56.339844 64.4375 C 56.160156 64.4375 56.039062 64.378906 55.921875 64.257812 L 48.722656 57.121094 C 48.480469 56.878906 48.480469 56.519531 48.722656 56.28125 C 74.039062 30.964844 76.675781 33.363281 82.015625 38.164062 C 82.136719 38.285156 82.195312 38.402344 82.195312 38.582031 C 82.195312 38.765625 82.136719 38.882812 82.015625 39.003906 L 56.699219 64.257812 C 56.640625 64.378906 56.460938 64.4375 56.339844 64.4375 Z M 50.042969 56.699219 L 56.339844 63 L 80.757812 38.582031 C 76.316406 34.625 73.316406 33.425781 50.042969 56.699219 Z M 50.042969 56.699219 "/>
<path style=" stroke:none;fill-rule:nonzero;fill:rgb(100%,100%,100%);fill-opacity:1;" d="M 63.597656 71.097656 L 56.699219 64.199219 L 82.015625 38.882812 C 88.792969 45.722656 78.65625 56.820312 63.597656 71.097656 Z M 63.597656 71.097656 "/>
<path style=" stroke:none;fill-rule:nonzero;fill:rgb(100%,42.352942%,21.568628%);fill-opacity:1;" d="M 63.597656 71.699219 C 63.417969 71.699219 63.300781 71.636719 63.179688 71.519531 L 56.28125 64.621094 C 56.160156 64.5 56.160156 64.378906 56.160156 64.199219 C 56.160156 64.019531 56.21875 63.898438 56.339844 63.78125 L 81.65625 38.464844 C 81.894531 38.222656 82.257812 38.222656 82.496094 38.464844 C 84.054688 39.902344 84.894531 41.941406 84.835938 44.042969 C 84.714844 50.703125 77.15625 59.160156 64.078125 71.519531 C 63.898438 71.636719 63.71875 71.699219 63.597656 71.699219 Z M 57.539062 64.199219 C 61.378906 68.097656 63 69.660156 63.597656 70.257812 C 73.675781 60.660156 83.457031 50.820312 83.515625 44.042969 C 83.574219 42.484375 82.976562 40.921875 81.957031 39.722656 Z M 57.539062 64.199219 "/>
<path style=" stroke:none;fill-rule:nonzero;fill:rgb(100%,100%,100%);fill-opacity:1;" d="M 49.320312 56.878906 L 54.421875 61.980469 C 54.539062 62.101562 54.539062 62.21875 54.421875 62.339844 C 54.359375 62.398438 54.359375 62.398438 54.300781 62.398438 L 43.742188 64.679688 C 43.203125 64.738281 42.722656 64.378906 42.601562 63.839844 C 42.542969 63.539062 42.664062 63.238281 42.84375 63.058594 L 48.960938 56.941406 C 49.082031 56.820312 49.261719 56.761719 49.320312 56.878906 Z M 49.320312 56.878906 "/>
<path style=" stroke:none;fill-rule:nonzero;fill:rgb(100%,42.352942%,21.568628%);fill-opacity:1;" d="M 43.5625 65.277344 C 42.664062 65.277344 42.003906 64.558594 42.003906 63.660156 C 42.003906 63.238281 42.183594 62.820312 42.484375 62.519531 L 48.601562 56.402344 C 48.960938 56.101562 49.441406 56.101562 49.800781 56.402344 L 54.902344 61.5 C 55.261719 61.800781 55.261719 62.339844 54.902344 62.699219 C 54.78125 62.820312 54.660156 62.878906 54.480469 62.941406 L 43.921875 65.21875 C 43.804688 65.21875 43.683594 65.277344 43.5625 65.277344 Z M 49.140625 57.539062 L 43.261719 63.417969 C 43.144531 63.539062 43.082031 63.71875 43.203125 63.898438 C 43.261719 64.078125 43.441406 64.140625 43.621094 64.078125 L 53.519531 61.917969 Z M 49.140625 57.539062 "/>
<path style=" stroke:none;fill-rule:nonzero;fill:rgb(100%,100%,100%);fill-opacity:1;" d="M 95.035156 24.488281 C 91.195312 20.765625 85.015625 20.886719 81.296875 24.785156 C 77.578125 28.6875 77.695312 34.804688 81.597656 38.523438 C 84.777344 41.582031 89.574219 42.125 93.355469 39.84375 L 86.515625 33.003906 Z M 95.035156 24.488281 "/>
<path style=" stroke:none;fill-rule:nonzero;fill:rgb(100%,42.352942%,21.568628%);fill-opacity:1;" d="M 88.316406 41.824219 C 82.617188 41.824219 77.996094 37.203125 77.996094 31.503906 C 77.996094 25.804688 82.617188 21.1875 88.316406 21.1875 C 90.953125 21.1875 93.535156 22.207031 95.453125 24.066406 C 95.574219 24.1875 95.632812 24.304688 95.632812 24.488281 C 95.632812 24.667969 95.574219 24.785156 95.453125 24.90625 L 87.355469 33.003906 L 93.714844 39.363281 C 93.953125 39.605469 93.953125 39.964844 93.714844 40.203125 C 93.652344 40.261719 93.652344 40.261719 93.59375 40.324219 C 92.035156 41.285156 90.175781 41.824219 88.316406 41.824219 Z M 88.316406 22.445312 C 83.277344 22.445312 79.195312 26.527344 79.257812 31.566406 C 79.257812 36.605469 83.335938 40.683594 88.375 40.625 C 89.753906 40.625 91.132812 40.324219 92.394531 39.664062 L 86.09375 33.425781 C 85.976562 33.304688 85.914062 33.183594 85.914062 33.003906 C 85.914062 32.824219 85.976562 32.703125 86.09375 32.585938 L 94.132812 24.546875 C 92.515625 23.167969 90.472656 22.445312 88.316406 22.445312 Z M 88.316406 22.445312 "/>
<path style=" stroke:none;fill-rule:nonzero;fill:rgb(100%,100%,100%);fill-opacity:1;" d="M 95.214844 24.667969 L 95.09375 24.546875 L 86.515625 33.003906 L 93.292969 39.785156 C 93.953125 39.363281 94.613281 38.882812 95.152344 38.34375 C 98.992188 34.566406 98.992188 28.445312 95.214844 24.667969 Z M 95.214844 24.667969 "/>
<path style=" stroke:none;fill-rule:nonzero;fill:rgb(100%,42.352942%,21.568628%);fill-opacity:1;" d="M 93.355469 40.445312 C 93.175781 40.445312 93.054688 40.382812 92.933594 40.261719 L 86.09375 33.425781 C 85.976562 33.304688 85.914062 33.183594 85.914062 33.003906 C 85.914062 32.824219 85.976562 32.703125 86.09375 32.585938 L 94.613281 24.066406 C 94.855469 23.828125 95.214844 23.828125 95.453125 24.066406 L 95.632812 24.1875 C 99.652344 28.207031 99.652344 34.683594 95.695312 38.765625 C 95.09375 39.363281 94.433594 39.902344 93.714844 40.324219 C 93.535156 40.382812 93.414062 40.445312 93.355469 40.445312 Z M 87.355469 33.003906 L 93.414062 39.0625 C 93.894531 38.765625 94.375 38.34375 94.734375 37.984375 C 98.152344 34.566406 98.332031 28.984375 95.035156 25.386719 Z M 87.355469 33.003906 "/>
<path style=" stroke:none;fill-rule:nonzero;fill:rgb(100%,100%,100%);fill-opacity:1;" d="M 82.675781 39.605469 C 81.234375 38.164062 78.898438 38.164062 77.457031 39.605469 L 54.839844 62.21875 L 58.621094 66 L 82.554688 45.003906 C 84.117188 43.683594 84.234375 41.34375 82.914062 39.785156 C 82.796875 39.722656 82.734375 39.664062 82.675781 39.605469 Z M 82.675781 39.605469 "/>
<path style=" stroke:none;fill-rule:nonzero;fill:rgb(100%,42.352942%,21.568628%);fill-opacity:1;" d="M 58.558594 66.597656 C 58.378906 66.597656 58.261719 66.539062 58.140625 66.417969 L 54.359375 62.640625 C 54.121094 62.398438 54.121094 62.039062 54.359375 61.800781 L 76.976562 39.183594 C 78.65625 37.503906 81.355469 37.503906 83.035156 39.183594 C 84.714844 40.863281 84.714844 43.5625 83.035156 45.242188 C 82.976562 45.300781 82.914062 45.363281 82.855469 45.421875 L 58.921875 66.417969 C 58.859375 66.539062 58.738281 66.597656 58.558594 66.597656 Z M 55.679688 62.21875 L 58.621094 65.160156 L 82.136719 44.523438 C 83.457031 43.441406 83.574219 41.464844 82.496094 40.144531 C 81.417969 38.824219 79.4375 38.703125 78.117188 39.785156 C 78.058594 39.84375 77.996094 39.902344 77.875 39.964844 Z M 55.679688 62.21875 "/>
<path style=" stroke:none;fill-rule:nonzero;fill:rgb(100%,100%,100%);fill-opacity:1;" d="M 37.503906 87.953125 C 37.265625 88.074219 37.144531 88.316406 37.203125 88.554688 L 38.222656 92.875 C 38.464844 93.472656 38.105469 94.195312 37.445312 94.375 C 36.964844 94.554688 36.425781 94.375 36.125 94.015625 L 29.527344 87.476562 L 51.0625 65.9375 L 58.5 66.058594 L 63.539062 71.097656 C 62.339844 72.117188 55.082031 79.136719 37.503906 87.953125 Z M 37.503906 87.953125 "/>
<path style=" stroke:none;fill-rule:nonzero;fill:rgb(100%,42.352942%,21.568628%);fill-opacity:1;" d="M 37.023438 94.972656 C 36.542969 94.972656 36.0625 94.792969 35.765625 94.433594 L 29.226562 87.894531 C 29.105469 87.773438 29.046875 87.65625 29.046875 87.476562 C 29.046875 87.296875 29.105469 87.175781 29.226562 87.054688 L 50.761719 65.519531 C 50.882812 65.398438 51.0625 65.339844 51.179688 65.339844 L 58.621094 65.460938 C 58.800781 65.460938 58.921875 65.519531 59.039062 65.640625 L 64.078125 70.679688 C 64.199219 70.796875 64.257812 70.976562 64.257812 71.15625 C 64.257812 71.339844 64.199219 71.457031 64.019531 71.578125 L 63.597656 71.9375 C 57.242188 77.515625 48.601562 83.097656 37.863281 88.433594 L 38.882812 92.695312 C 39.0625 93.472656 38.703125 94.3125 37.984375 94.734375 C 37.625 94.914062 37.324219 94.972656 37.023438 94.972656 Z M 30.425781 87.476562 L 36.605469 93.59375 C 36.785156 93.894531 37.144531 94.015625 37.445312 93.832031 C 37.742188 93.652344 37.863281 93.292969 37.683594 92.992188 L 36.664062 88.675781 C 36.542969 88.136719 36.785156 87.65625 37.265625 87.414062 C 47.882812 82.074219 56.460938 76.558594 62.757812 71.097656 L 58.320312 66.660156 L 51.421875 66.539062 Z M 30.425781 87.476562 "/>
<path style=" stroke:none;fill-rule:nonzero;fill:rgb(100%,100%,100%);fill-opacity:1;" d="M 24.425781 92.632812 L 29.585938 87.476562 L 37.265625 95.152344 L 25.027344 94.3125 C 24.488281 94.253906 24.125 93.773438 24.1875 93.234375 C 24.1875 92.992188 24.246094 92.753906 24.425781 92.632812 Z M 24.425781 92.632812 "/>
<path style=" stroke:none;fill-rule:nonzero;fill:rgb(100%,42.352942%,21.568628%);fill-opacity:1;" d="M 37.265625 95.695312 L 24.964844 94.855469 C 24.066406 94.792969 23.464844 94.015625 23.527344 93.113281 C 23.585938 92.753906 23.707031 92.394531 24.007812 92.152344 L 29.164062 86.996094 C 29.40625 86.753906 29.765625 86.753906 30.003906 86.996094 L 37.683594 94.671875 C 37.863281 94.855469 37.925781 95.09375 37.804688 95.332031 C 37.683594 95.574219 37.503906 95.695312 37.265625 95.695312 Z M 29.585938 88.316406 L 24.847656 93.054688 C 24.667969 93.175781 24.667969 93.472656 24.847656 93.59375 C 24.90625 93.652344 24.964844 93.714844 25.085938 93.714844 L 35.703125 94.433594 Z M 29.585938 88.316406 "/>
<path style=" stroke:none;fill-rule:nonzero;fill:rgb(100%,42.352942%,21.568628%);fill-opacity:1;" d="M 48.960938 68.699219 C 48.601562 68.699219 48.363281 68.398438 48.363281 68.097656 C 48.363281 67.917969 48.421875 67.796875 48.542969 67.679688 L 54.359375 61.859375 C 54.601562 61.621094 54.960938 61.621094 55.199219 61.859375 L 58.980469 65.640625 C 59.160156 65.820312 59.21875 66 59.160156 66.238281 C 59.101562 66.417969 58.921875 66.597656 58.679688 66.660156 L 49.082031 68.699219 C 49.023438 68.699219 48.960938 68.699219 48.960938 68.699219 Z M 54.78125 63.121094 L 50.820312 67.078125 L 57.300781 65.699219 Z M 54.78125 63.121094 "/>
<path style=" stroke:none;fill-rule:nonzero;fill:rgb(100%,100%,100%);fill-opacity:1;" d="M 58.5 66.058594 L 51.902344 67.5 C 51.421875 67.617188 50.941406 67.320312 50.820312 66.839844 C 50.761719 66.539062 50.820312 66.238281 51.0625 66 L 54.722656 62.339844 Z M 58.5 66.058594 "/>
<path style=" stroke:none;fill-rule:nonzero;fill:rgb(100%,42.352942%,21.568628%);fill-opacity:1;" d="M 51.78125 68.097656 C 50.941406 68.097656 50.28125 67.4375 50.28125 66.597656 C 50.28125 66.179688 50.460938 65.820312 50.703125 65.519531 L 54.359375 61.859375 C 54.601562 61.621094 54.960938 61.621094 55.199219 61.859375 L 58.980469 65.640625 C 59.160156 65.820312 59.21875 66 59.160156 66.238281 C 59.101562 66.417969 58.921875 66.597656 58.679688 66.660156 L 52.082031 68.097656 C 51.960938 68.097656 51.839844 68.097656 51.78125 68.097656 Z M 54.78125 63.121094 L 51.542969 66.359375 C 51.421875 66.480469 51.421875 66.597656 51.480469 66.71875 C 51.542969 66.839844 51.660156 66.898438 51.839844 66.898438 L 57.359375 65.699219 Z M 54.78125 63.121094 "/>
<path style=" stroke:none;fill-rule:nonzero;fill:rgb(100%,42.352942%,21.568628%);fill-opacity:1;" d="M 95.273438 30.425781 C 95.152344 30.066406 94.734375 29.886719 94.375 30.003906 C 94.015625 30.125 93.832031 30.546875 93.953125 30.90625 C 93.953125 30.964844 94.015625 31.023438 94.015625 31.085938 C 94.375 31.804688 94.253906 32.703125 93.773438 33.363281 C 93.535156 33.664062 93.59375 34.085938 93.832031 34.324219 C 94.132812 34.566406 94.554688 34.503906 94.792969 34.203125 C 95.695312 33.066406 95.875 31.625 95.273438 30.425781 Z M 95.273438 30.425781 "/>
</g>
</svg>
