<?xml version="1.0" encoding="UTF-8"?>
<svg xmlns="http://www.w3.org/2000/svg" xmlns:xlink="http://www.w3.org/1999/xlink" width="121px" height="121px" viewBox="0 0 121 121" version="1.1">
<g id="surface1">
<path style=" stroke:none;fill-rule:evenodd;fill:rgb(0%,0%,0%);fill-opacity:1;" d="M 60.5 0 C 27.074219 0 0 27.074219 0 60.5 C 0 87.269531 17.316406 109.882812 41.367188 117.898438 C 44.390625 118.429688 45.527344 116.613281 45.527344 115.027344 C 45.527344 113.589844 45.449219 108.824219 45.449219 103.757812 C 30.25 106.554688 26.316406 100.050781 25.109375 96.648438 C 24.425781 94.910156 21.476562 89.539062 18.90625 88.101562 C 16.789062 86.96875 13.765625 84.171875 18.832031 84.09375 C 23.59375 84.019531 27 88.480469 28.132812 90.296875 C 33.578125 99.445312 42.273438 96.875 45.753906 95.289062 C 46.28125 91.355469 47.871094 88.707031 49.609375 87.195312 C 36.148438 85.683594 22.082031 80.464844 22.082031 57.324219 C 22.082031 50.746094 24.425781 45.300781 28.285156 41.0625 C 27.679688 39.550781 25.5625 33.351562 28.890625 25.03125 C 28.890625 25.03125 33.957031 23.445312 45.527344 31.234375 C 50.367188 29.871094 55.507812 29.191406 60.652344 29.191406 C 65.792969 29.191406 70.9375 29.871094 75.777344 31.234375 C 87.347656 23.367188 92.414062 25.03125 92.414062 25.03125 C 95.742188 33.351562 93.625 39.550781 93.019531 41.0625 C 96.875 45.300781 99.21875 50.667969 99.21875 57.324219 C 99.21875 80.539062 85.078125 85.683594 71.617188 87.195312 C 73.808594 89.085938 75.699219 92.714844 75.699219 98.386719 C 75.699219 106.480469 75.625 112.984375 75.625 115.027344 C 75.625 116.613281 76.757812 118.503906 79.785156 117.898438 C 91.792969 113.84375 102.230469 106.125 109.625 95.828125 C 117.019531 85.53125 120.996094 73.175781 121 60.5 C 121 27.074219 93.925781 0 60.5 0 Z M 60.5 0 "/>
</g>
</svg>
